{
  "title": "Mechanic 2 - Resurrection (2016) 1CD x264 SCREENER-CAM AAC DDR",
  "uid": 15550244,
  "size": 740797655,
  "categoryP": "video",
  "categoryS": "movies",
  "magnet": "?xt=urn:btih:6eef1bd912fac9b5ba801fd02996c79491226216&amp;dn=Mechanic+2+-+Resurrection+%282016%29+1CD+x264+SCREENER-CAM+AAC+DDR&amp;tr=udp%3A%2F%2Ftracker.leechers-paradise.org%3A6969&amp;tr=udp%3A%2F%2Fzer0day.ch%3A1337&amp;tr=udp%3A%2F%2Fopen.demonii.com%3A1337&amp;tr=udp%3A%2F%2Ftracker.coppersurfer.tk%3A6969&amp;tr=udp%3A%2F%2Fexodus.desync.com%3A6969",
  "seeders": 354,
  "leechers": 97,
  "uploader": "SaM",
  "files": 3,
  "time": 1471013520,
  "description": "- HollyWooD Movie-\r\n\r\nMechanic 2 - Resurrection\r\n\r\nCAM of SCREENER\r\n\r\nCleaned AAC Stereo Audio\r\n\r\nHardcode portuguese-brasilian subtitle(s) \r\n \nhttp://extraimago.com/image/wnfd \nhttp://extraimago.com/image/wnfI \nhttp://extraimago.com/image/wnfl \nhttp://extraimago.com/image/wnfi \nhttp://extraimago.com/image/wnfm \nhttp://extraimago.com/image/wnfR \nhttp://extraimago.com/image/wnfQ \nhttp://extraimago.com/image/wnfL \nhttp://extraimago.com/image/wnfy \nhttp://extraimago.com/image/wnfq \nhttp://extraimago.com/image/wnfS \nhttp://extraimago.com/image/wnfO \nhttp://extraimago.com/image/wnfE\r\n\r\nNotes:\r\nI have tried to remove the horrible crackles &amp; hissing annoying noise as best as possible.\r\nThis is not perfect but it's now more viewable that what it was before the cleaning.\r\n\r\nPlease check the sample before downloading and do not complain that you were not notified.\r\n\r\nSAMPLE on Sendspace here\r\n\r\nSource : CAM of a SCREENER - VAiN\r\n\r\nFormat : Matroska\r\nFile size : 699 MiB\r\nDuration : 1h 35mn\r\nOverall bit rate mode : Variable\r\nOverall bit rate : 1 027 Kbps\r\n\r\n\r\nVideo\r\nFormat : AVC\r\nFormat/Info : Advanced Video Codec\r\nFormat profile :   \r\nFormat settings, CABAC : Yes\r\nFormat settings, ReFrames : 16 frames\r\nCodec ID : V_MPEG4/ISO/AVC\r\nDuration : 1h 35mn\r\nBit rate mode : Variable\r\nBit rate : 961 Kbps\r\nMaximum bit rate : 17.5 Mbps\r\nWidth : 704 pixels\r\nHeight : 288 pixels\r\nDisplay aspect ratio : 2.40:1\r\nFrame rate mode : Constant\r\nFrame rate : 23.976 (24000/1001) fps\r\ncolor space : YUV\r\nChroma subsampling : 4:2:0\r\nBit depth : 8 bits\r\nScan type : Progressive\r\nBits/(Pixel*Frame) : 0.198\r\nStream size : 654 MiB (94%)\r\nMatrix coefficients : BT.601\r\n\r\nAudio\r\nFormat : AAC\r\nFormat/Info : Advanced Audio Codec\r\nFormat profile : LC\r\nCodec ID : A_AAC\r\nDuration : 1h 35mn\r\nBit rate : 64.0 Kbps\r\nChannel(s) : 2 channels\r\nChannel positions : Front: L R\r\nSampling rate : 48.0 KHz\r\nFrame rate : 46.875 fps (1024 spf)\r\nCompression mode : Lossy\r\nDelay relative to video : 9ms\r\nStream size : 43.5 MiB (6%)\r\nLanguage : English\r\nDefault : Yes\r\nForced : No\r\n\r\nChapters : None on source\r\n\r\nSample : Included",
  "parsed": {
    "xt": "urn:btih:6eef1bd912fac9b5ba801fd02996c79491226216",
    "dn": "Mechanic 2 - Resurrection (2016) 1CD x264 SCREENER-CAM AAC DDR",
    "tr": [
      "udp://exodus.desync.com:6969",
      "udp://open.demonii.com:1337",
      "udp://tracker.coppersurfer.tk:6969",
      "udp://tracker.leechers-paradise.org:6969",
      "udp://zer0day.ch:1337"
    ],
    "infoHash": "6eef1bd912fac9b5ba801fd02996c79491226216",
    "infoHashBuffer": {
      "type": "Buffer",
      "data": [
        110,
        239,
        27,
        217,
        18,
        250,
        201,
        181,
        186,
        128,
        31,
        208,
        41,
        150,
        199,
        148,
        145,
        34,
        98,
        22
      ]
    },
    "name": "Mechanic 2 - Resurrection (2016) 1CD x264 SCREENER-CAM AAC DDR",
    "announce": [
      "udp://exodus.desync.com:6969",
      "udp://open.demonii.com:1337",
      "udp://tracker.coppersurfer.tk:6969",
      "udp://tracker.leechers-paradise.org:6969",
      "udp://zer0day.ch:1337"
    ],
    "urlList": []
  },
  "previous": 100,
  "peers": 202,
  "last_updated": "2016-12-27T03:24:05.744Z"
}